<?xml version="1.0" encoding="UTF-8"?>
<svg xmlns="http://www.w3.org/2000/svg" width="1000" height="957" viewBox="0 0 1000 957" role="img" aria-labelledby="title desc">
  <title id="title">ProxMenux growth for MacRimi/ProxMenux</title>
  <desc id="desc">Repository growth dashboard showing stars, forks, git clones over time.</desc>
  <defs>
    <linearGradient id="background" x1="0" y1="0" x2="1" y2="1">
      <stop offset="0" stop-color="#fafafa"/><stop offset="1" stop-color="#f4f4f5"/>
    </linearGradient>
    <linearGradient id="fill-stars" x1="0" y1="0" x2="0" y2="1"><stop offset="0" stop-color="#8b5cf6" stop-opacity=".24"/><stop offset="1" stop-color="#8b5cf6" stop-opacity="0"/></linearGradient><linearGradient id="fill-forks" x1="0" y1="0" x2="0" y2="1"><stop offset="0" stop-color="#06b6d4" stop-opacity=".24"/><stop offset="1" stop-color="#06b6d4" stop-opacity="0"/></linearGradient><linearGradient id="fill-clones" x1="0" y1="0" x2="0" y2="1"><stop offset="0" stop-color="#f59e0b" stop-opacity=".24"/><stop offset="1" stop-color="#f59e0b" stop-opacity="0"/></linearGradient>
    <filter id="shadow" x="-10%" y="-10%" width="120%" height="130%"><feDropShadow dx="0" dy="8" stdDeviation="14" flood-color="#18181b" flood-opacity=".08"/></filter>
    <style>
      :root { color-scheme: light dark; }
      .bg { fill: url(#background); }
      .surface { fill: #ffffff; stroke: #e4e4e7; }
      .panel { fill: #ffffff; stroke: #e4e4e7; }
      .primary { fill: #18181b; }
      .secondary { fill: #71717a; }
      .grid { stroke: #e4e4e7; }
      text { font-family: Inter, ui-sans-serif, system-ui, -apple-system, BlinkMacSystemFont, "Segoe UI", sans-serif; }
      @media (prefers-color-scheme: dark) {
        .bg { fill: #09090b; }
        .surface, .panel { fill: #111113; stroke: #27272a; }
        .primary { fill: #fafafa; }
        .secondary { fill: #a1a1aa; }
        .grid { stroke: #27272a; }
      }
    </style>
  </defs>
  <rect class="bg" width="1000" height="957" rx="28"/>
  <g transform="translate(42 38)">
    <rect x="0" y="0" width="916" height="881" rx="22" class="surface" filter="url(#shadow)"/>
    <text x="30" y="45" class="primary" font-size="26" font-weight="750" letter-spacing="-.5">ProxMenux growth</text>
    <text x="30" y="70" class="secondary" font-size="14">MacRimi/ProxMenux · Jan 15, 2025 – Sep 6, 2026</text>
    <g transform="translate(740 25)"><rect width="146" height="30" rx="15" fill="#8b5cf6" fill-opacity=".12"/><circle cx="17" cy="15" r="4" fill="#8b5cf6"/><text x="30" y="20" fill="#8b5cf6" font-size="11" font-weight="700" letter-spacing="1">LOCAL HISTORY</text></g>
    <g transform="translate(30 92)">
    <rect width="272" height="86" rx="16" class="panel"/>
    <rect x="16" y="17" width="6" height="52" rx="3" fill="#8b5cf6"/>
    <text x="38" y="34" class="secondary" font-size="12" font-weight="650" letter-spacing=".3">STARS</text>
    <text x="38" y="64" class="primary" font-size="27" font-weight="760" letter-spacing="-.5">2,954</text>
    <text x="246" y="63" text-anchor="end" fill="#8b5cf6" font-size="11" font-weight="650">+2,953 tracked</text>
  </g><g transform="translate(322 92)">
    <rect width="272" height="86" rx="16" class="panel"/>
    <rect x="16" y="17" width="6" height="52" rx="3" fill="#06b6d4"/>
    <text x="38" y="34" class="secondary" font-size="12" font-weight="650" letter-spacing=".3">FORKS</text>
    <text x="38" y="64" class="primary" font-size="27" font-weight="760" letter-spacing="-.5">152</text>
    <text x="246" y="63" text-anchor="end" fill="#06b6d4" font-size="11" font-weight="650">+152 tracked</text>
  </g><g transform="translate(614 92)">
    <rect width="272" height="86" rx="16" class="panel"/>
    <rect x="16" y="17" width="6" height="52" rx="3" fill="#f59e0b"/>
    <text x="38" y="34" class="secondary" font-size="12" font-weight="650" letter-spacing=".3">GIT CLONES</text>
    <text x="38" y="64" class="primary" font-size="27" font-weight="760" letter-spacing="-.5">26.4K</text>
    <text x="246" y="63" text-anchor="end" fill="#f59e0b" font-size="11" font-weight="650">+26K tracked</text>
  </g>
    <g transform="translate(30 197)">
    <rect width="856" height="201" rx="16" class="panel"/>
    <circle cx="20" cy="27" r="5" fill="#8b5cf6"/>
    <text x="34" y="31" class="primary" font-size="14" font-weight="700">Stars</text>
    <text x="20" y="62" class="primary" font-size="20" font-weight="750">2,954</text>
    <text x="20" y="83" class="secondary" font-size="11">range 1–2,954</text>
    <line x1="220" x2="836" y1="20" y2="20" class="grid" stroke-width="1" stroke-dasharray="3 6"/><text x="210" y="24" text-anchor="end" class="secondary" font-size="9">2,954</text><line x1="220" x2="836" y1="95" y2="95" class="grid" stroke-width="1" stroke-dasharray="3 6"/><text x="210" y="99" text-anchor="end" class="secondary" font-size="9">1,478</text><line x1="220" x2="836" y1="170" y2="170" class="grid" stroke-width="1" stroke-dasharray="3 6"/><text x="210" y="174" text-anchor="end" class="secondary" font-size="9">1</text>
    <path d="M220 170 L273.5 169.9 L281.7 169.8 L288.9 169.8 L289.9 169.7 L294 169.7 L295.1 169.6 L298.2 169.6 L304.3 169.5 L328 169.3 L329 169.2 L335.2 169.2 L337.2 169.1 L338.3 169 L339.3 168.9 L340.3 168.1 L341.3 167.1 L342.4 167 L343.4 166.8 L344.4 166.7 L345.5 166.5 L347.5 166.4 L348.5 166.3 L349.6 166.2 L350.6 166.1 L351.6 165.4 L352.7 164.3 L353.7 163.8 L354.7 163.4 L355.7 163.3 L356.8 163.2 L357.8 163 L361.9 162.9 L362.9 162.7 L364 162.6 L366 162.5 L367.1 162.4 L369.1 162.3 L370.1 162.2 L371.2 162.1 L373.2 162 L375.3 161.9 L376.3 161.7 L379.4 157.8 L380.4 154.4 L381.5 152.9 L382.5 151.1 L383.5 149.4 L384.5 148.2 L385.6 147 L386.6 146.1 L387.6 145.7 L388.7 145.3 L389.7 144.9 L390.7 144.6 L391.7 144.3 L392.8 143.9 L393.8 143.5 L394.8 142.9 L395.9 142.4 L396.9 141.9 L397.9 141.2 L398.9 140.8 L400 140.7 L401 140.4 L402 140.1 L403.1 139.7 L404.1 139.5 L406.1 139.2 L407.2 138.9 L408.2 138.7 L409.2 138.6 L410.3 138.4 L411.3 138.3 L412.3 138.2 L413.3 137.9 L414.4 137.6 L415.4 137.3 L416.4 136.9 L417.4 136.8 L418.5 136.7 L419.5 136.4 L420.5 136.3 L421.6 136.1 L422.6 135.9 L423.6 135.7 L424.6 135.5 L425.7 135.4 L426.7 135.2 L427.7 135.1 L428.8 134.9 L429.8 134.7 L430.8 134.7 L431.8 134.4 L432.9 133.9 L433.9 133.5 L434.9 133.4 L436 133.1 L437 132.8 L438 132.6 L440.1 132.3 L441.1 132.1 L442.1 131.9 L443.2 131.8 L444.2 131.4 L445.2 131.1 L446.2 131 L447.3 130.9 L448.3 130.9 L449.3 130.7 L450.4 130.7 L451.4 130.5 L452.4 130.3 L453.4 130.1 L454.5 130 L455.5 129.9 L456.5 129.8 L459.6 129.4 L460.6 129.4 L461.7 129.2 L462.7 129 L464.8 128.9 L465.8 128.4 L466.8 128.3 L467.8 127.9 L468.9 127.5 L469.9 127.2 L470.9 127.2 L472 127.1 L473 126.9 L474 126.7 L475 126.5 L476.1 126.2 L477.1 126.1 L478.1 125.9 L479.2 125.4 L480.2 125.1 L481.2 125 L482.2 124.6 L483.3 124.1 L484.3 123.6 L485.3 123.4 L486.4 123 L487.4 122.8 L489.4 122.6 L490.5 122.5 L491.5 122.3 L492.5 121.9 L493.5 121.6 L494.6 121.3 L496.6 120.9 L498.7 120.6 L499.7 120.4 L500.7 120.1 L501.8 120 L502.8 119.8 L503.8 119.7 L504.9 119.6 L505.9 119.4 L506.9 119.4 L507.9 119.2 L509 118.9 L510 118.7 L511 118.5 L512.1 118.4 L513.1 118 L514.1 117.8 L515.1 117.6 L516.2 117.2 L517.2 116.7 L518.2 116.2 L519.3 115 L520.3 113.9 L521.3 113.2 L522.3 112.4 L523.4 111.8 L524.4 110.3 L525.4 106.3 L526.5 103.7 L527.5 102.2 L528.5 101.7 L529.5 101 L530.6 100.4 L531.6 98.4 L532.6 96.5 L533.7 94.9 L534.7 94.3 L535.7 92.9 L536.7 92.3 L537.8 91.6 L538.8 90.8 L539.8 90 L540.9 89.4 L541.9 88.2 L542.9 87.8 L543.9 86.6 L545 86.4 L546 86.2 L547 85.7 L548.1 85.1 L549.1 84.5 L550.1 84.1 L551.1 83.8 L552.2 83.3 L553.2 82.7 L554.2 82.2 L555.3 79.3 L556.3 78.1 L557.3 77.2 L558.3 76.4 L559.4 75.9 L560.4 75.3 L561.4 74.8 L562.5 74.2 L563.5 73.9 L564.5 73.6 L565.5 73.4 L566.6 73.2 L567.6 72.7 L568.6 72.4 L569.6 71.8 L570.7 71.6 L571.7 71.3 L572.7 71 L573.8 70.7 L574.8 70.3 L575.8 70 L576.8 69.1 L577.9 68.8 L578.9 68.5 L579.9 68.4 L581 68.1 L582 67.6 L583 67.5 L584 67.1 L585.1 66.7 L586.1 66.5 L587.1 66.2 L588.2 65.9 L589.2 65.6 L590.2 65.4 L591.2 65.3 L592.3 64.9 L593.3 64.5 L594.3 64.2 L595.4 64.1 L596.4 63.2 L597.4 62.5 L598.4 62.2 L599.5 62 L600.5 61.7 L601.5 61.4 L602.6 61.1 L603.6 60.8 L604.6 60.6 L605.6 60.5 L606.7 60.3 L607.7 60 L608.7 59.3 L609.8 59.1 L610.8 58.6 L611.8 58.1 L612.8 57.9 L613.9 57.5 L614.9 57.2 L615.9 57.1 L617 56.9 L618 56.7 L619 56.4 L620 56.4 L621.1 56.2 L622.1 55.8 L623.1 53.8 L624.2 52.9 L625.2 52 L626.2 51.5 L627.2 51.1 L628.3 50.6 L629.3 49.9 L630.3 49.5 L631.4 49 L632.4 48.6 L633.4 48.5 L634.4 48 L635.5 47.7 L636.5 47.5 L637.5 47.3 L638.6 47.1 L639.6 46.7 L640.6 46.4 L641.6 46 L642.7 45.9 L643.7 45.7 L644.7 45.3 L645.7 45.2 L646.8 45.1 L647.8 44.9 L648.8 44.8 L649.9 44.7 L650.9 44.6 L651.9 44.6 L652.9 44.4 L654 44.3 L655 44.2 L656 44 L657.1 43.8 L658.1 43.5 L659.1 43.5 L660.1 43.3 L661.2 43.2 L662.2 42.8 L663.2 42.6 L664.3 42.2 L665.3 42.1 L666.3 41.7 L667.3 41.5 L668.4 41.4 L669.4 41.3 L670.4 41.1 L671.5 40.8 L672.5 40.7 L673.5 40.5 L674.5 40.4 L675.6 40.2 L676.6 40.1 L677.6 40 L678.7 39.8 L679.7 39.8 L682.8 39.7 L683.8 39.4 L685.9 39.3 L686.9 39.2 L688.9 39.1 L690 39 L691 38.6 L692 38.5 L693.1 38.2 L694.1 38.1 L695.1 37.9 L696.1 37.6 L697.2 37.6 L698.2 37.5 L700.3 37.3 L701.3 37.3 L702.3 37.2 L703.3 37.2 L704.4 37 L705.4 37 L706.4 36.9 L707.5 36.7 L709.5 36.6 L710.5 36.5 L711.6 36.4 L712.6 36.2 L713.6 35.9 L715.7 35.8 L716.7 35.7 L717.7 35.5 L718.8 35.3 L719.8 35.2 L720.8 35 L721.8 34.9 L722.9 34.8 L723.9 34.7 L724.9 34.4 L726 34.2 L727 34 L728 33.9 L729 33.8 L730.1 33.6 L731.1 33.5 L732.1 33.4 L733.2 33.3 L734.2 33.2 L735.2 33.1 L736.2 33 L737.3 32.8 L738.3 32.6 L739.3 32.5 L740.4 32.4 L741.4 32.3 L742.4 32.2 L743.4 32.2 L744.5 32.1 L745.5 31.9 L746.5 31.8 L747.6 31.8 L748.6 31.7 L749.6 31.6 L750.6 31.4 L751.7 31.4 L753.7 31.3 L754.8 31.2 L755.8 31.1 L756.8 31 L757.8 31 L758.9 30.8 L759.9 30.7 L760.9 30.6 L763 30.4 L765 30.4 L766.1 30.3 L767.1 30.1 L769.2 30 L770.2 29.9 L771.2 29.8 L772.2 29.6 L773.3 29.5 L775.3 29.3 L776.4 29.2 L779.4 29.2 L780.5 28.9 L781.5 28.8 L782.5 28.7 L783.6 28.7 L784.6 28.6 L785.6 28.5 L786.6 28.1 L787.7 27.3 L788.7 27.2 L789.7 27 L790.8 26.9 L791.8 26.8 L792.8 26.7 L793.8 26.7 L794.9 26.7 L795.9 26.5 L796.9 26.5 L797.9 26.4 L799 26.2 L800 26.2 L801 26.1 L802.1 26 L803.1 26 L804.1 26 L805.1 25.8 L806.2 25.7 L807.2 25.6 L808.2 25.4 L809.3 25.4 L810.3 25.3 L811.3 25.2 L812.3 25 L813.4 24.9 L814.4 24.8 L815.4 24.6 L816.5 24.6 L817.5 24.5 L818.5 24.5 L819.5 24.4 L820.6 24.2 L821.6 23.8 L822.6 22.8 L823.7 22.4 L824.7 22.1 L825.7 22 L826.7 21.9 L827.8 21.9 L828.8 21.7 L829.8 21.6 L830.9 21.5 L831.9 21.4 L832.9 21.4 L833.9 21.2 L835 20.5 L836 20 L836 170 L220 170 Z" fill="url(#fill-stars)"/>
    <path d="M220 170 L273.5 169.9 L281.7 169.8 L288.9 169.8 L289.9 169.7 L294 169.7 L295.1 169.6 L298.2 169.6 L304.3 169.5 L328 169.3 L329 169.2 L335.2 169.2 L337.2 169.1 L338.3 169 L339.3 168.9 L340.3 168.1 L341.3 167.1 L342.4 167 L343.4 166.8 L344.4 166.7 L345.5 166.5 L347.5 166.4 L348.5 166.3 L349.6 166.2 L350.6 166.1 L351.6 165.4 L352.7 164.3 L353.7 163.8 L354.7 163.4 L355.7 163.3 L356.8 163.2 L357.8 163 L361.9 162.9 L362.9 162.7 L364 162.6 L366 162.5 L367.1 162.4 L369.1 162.3 L370.1 162.2 L371.2 162.1 L373.2 162 L375.3 161.9 L376.3 161.7 L379.4 157.8 L380.4 154.4 L381.5 152.9 L382.5 151.1 L383.5 149.4 L384.5 148.2 L385.6 147 L386.6 146.1 L387.6 145.7 L388.7 145.3 L389.7 144.9 L390.7 144.6 L391.7 144.3 L392.8 143.9 L393.8 143.5 L394.8 142.9 L395.9 142.4 L396.9 141.9 L397.9 141.2 L398.9 140.8 L400 140.7 L401 140.4 L402 140.1 L403.1 139.7 L404.1 139.5 L406.1 139.2 L407.2 138.9 L408.2 138.7 L409.2 138.6 L410.3 138.4 L411.3 138.3 L412.3 138.2 L413.3 137.9 L414.4 137.6 L415.4 137.3 L416.4 136.9 L417.4 136.8 L418.5 136.7 L419.5 136.4 L420.5 136.3 L421.6 136.1 L422.6 135.9 L423.6 135.7 L424.6 135.5 L425.7 135.4 L426.7 135.2 L427.7 135.1 L428.8 134.9 L429.8 134.7 L430.8 134.7 L431.8 134.4 L432.9 133.9 L433.9 133.5 L434.9 133.4 L436 133.1 L437 132.8 L438 132.6 L440.1 132.3 L441.1 132.1 L442.1 131.9 L443.2 131.8 L444.2 131.4 L445.2 131.1 L446.2 131 L447.3 130.9 L448.3 130.9 L449.3 130.7 L450.4 130.7 L451.4 130.5 L452.4 130.3 L453.4 130.1 L454.5 130 L455.5 129.9 L456.5 129.8 L459.6 129.4 L460.6 129.4 L461.7 129.2 L462.7 129 L464.8 128.9 L465.8 128.4 L466.8 128.3 L467.8 127.9 L468.9 127.5 L469.9 127.2 L470.9 127.2 L472 127.1 L473 126.9 L474 126.7 L475 126.5 L476.1 126.2 L477.1 126.1 L478.1 125.9 L479.2 125.4 L480.2 125.1 L481.2 125 L482.2 124.6 L483.3 124.1 L484.3 123.6 L485.3 123.4 L486.4 123 L487.4 122.8 L489.4 122.6 L490.5 122.5 L491.5 122.3 L492.5 121.9 L493.5 121.6 L494.6 121.3 L496.6 120.9 L498.7 120.6 L499.7 120.4 L500.7 120.1 L501.8 120 L502.8 119.8 L503.8 119.7 L504.9 119.6 L505.9 119.4 L506.9 119.4 L507.9 119.2 L509 118.9 L510 118.7 L511 118.5 L512.1 118.4 L513.1 118 L514.1 117.8 L515.1 117.6 L516.2 117.2 L517.2 116.7 L518.2 116.2 L519.3 115 L520.3 113.9 L521.3 113.2 L522.3 112.4 L523.4 111.8 L524.4 110.3 L525.4 106.3 L526.5 103.7 L527.5 102.2 L528.5 101.7 L529.5 101 L530.6 100.4 L531.6 98.4 L532.6 96.5 L533.7 94.9 L534.7 94.3 L535.7 92.9 L536.7 92.3 L537.8 91.6 L538.8 90.8 L539.8 90 L540.9 89.4 L541.9 88.2 L542.9 87.8 L543.9 86.6 L545 86.4 L546 86.2 L547 85.7 L548.1 85.1 L549.1 84.5 L550.1 84.1 L551.1 83.8 L552.2 83.3 L553.2 82.7 L554.2 82.2 L555.3 79.3 L556.3 78.1 L557.3 77.2 L558.3 76.4 L559.4 75.9 L560.4 75.3 L561.4 74.8 L562.5 74.2 L563.5 73.9 L564.5 73.6 L565.5 73.4 L566.6 73.2 L567.6 72.7 L568.6 72.4 L569.6 71.8 L570.7 71.6 L571.7 71.3 L572.7 71 L573.8 70.7 L574.8 70.3 L575.8 70 L576.8 69.1 L577.9 68.8 L578.9 68.5 L579.9 68.4 L581 68.1 L582 67.6 L583 67.5 L584 67.1 L585.1 66.7 L586.1 66.5 L587.1 66.2 L588.2 65.9 L589.2 65.6 L590.2 65.4 L591.2 65.3 L592.3 64.9 L593.3 64.5 L594.3 64.2 L595.4 64.1 L596.4 63.2 L597.4 62.5 L598.4 62.2 L599.5 62 L600.5 61.7 L601.5 61.4 L602.6 61.1 L603.6 60.8 L604.6 60.6 L605.6 60.5 L606.7 60.3 L607.7 60 L608.7 59.3 L609.8 59.1 L610.8 58.6 L611.8 58.1 L612.8 57.9 L613.9 57.5 L614.9 57.2 L615.9 57.1 L617 56.9 L618 56.7 L619 56.4 L620 56.4 L621.1 56.2 L622.1 55.8 L623.1 53.8 L624.2 52.9 L625.2 52 L626.2 51.5 L627.2 51.1 L628.3 50.6 L629.3 49.9 L630.3 49.5 L631.4 49 L632.4 48.6 L633.4 48.5 L634.4 48 L635.5 47.7 L636.5 47.5 L637.5 47.3 L638.6 47.1 L639.6 46.7 L640.6 46.4 L641.6 46 L642.7 45.9 L643.7 45.7 L644.7 45.3 L645.7 45.2 L646.8 45.1 L647.8 44.9 L648.8 44.8 L649.9 44.7 L650.9 44.6 L651.9 44.6 L652.9 44.4 L654 44.3 L655 44.2 L656 44 L657.1 43.8 L658.1 43.5 L659.1 43.5 L660.1 43.3 L661.2 43.2 L662.2 42.8 L663.2 42.6 L664.3 42.2 L665.3 42.1 L666.3 41.7 L667.3 41.5 L668.4 41.4 L669.4 41.3 L670.4 41.1 L671.5 40.8 L672.5 40.7 L673.5 40.5 L674.5 40.4 L675.6 40.2 L676.6 40.1 L677.6 40 L678.7 39.8 L679.7 39.8 L682.8 39.7 L683.8 39.4 L685.9 39.3 L686.9 39.2 L688.9 39.1 L690 39 L691 38.6 L692 38.5 L693.1 38.2 L694.1 38.1 L695.1 37.9 L696.1 37.6 L697.2 37.6 L698.2 37.5 L700.3 37.3 L701.3 37.3 L702.3 37.2 L703.3 37.2 L704.4 37 L705.4 37 L706.4 36.9 L707.5 36.7 L709.5 36.6 L710.5 36.5 L711.6 36.4 L712.6 36.2 L713.6 35.9 L715.7 35.8 L716.7 35.7 L717.7 35.5 L718.8 35.3 L719.8 35.2 L720.8 35 L721.8 34.9 L722.9 34.8 L723.9 34.7 L724.9 34.4 L726 34.2 L727 34 L728 33.9 L729 33.8 L730.1 33.6 L731.1 33.5 L732.1 33.4 L733.2 33.3 L734.2 33.2 L735.2 33.1 L736.2 33 L737.3 32.8 L738.3 32.6 L739.3 32.5 L740.4 32.4 L741.4 32.3 L742.4 32.2 L743.4 32.2 L744.5 32.1 L745.5 31.9 L746.5 31.8 L747.6 31.8 L748.6 31.7 L749.6 31.6 L750.6 31.4 L751.7 31.4 L753.7 31.3 L754.8 31.2 L755.8 31.1 L756.8 31 L757.8 31 L758.9 30.8 L759.9 30.7 L760.9 30.6 L763 30.4 L765 30.4 L766.1 30.3 L767.1 30.1 L769.2 30 L770.2 29.9 L771.2 29.8 L772.2 29.6 L773.3 29.5 L775.3 29.3 L776.4 29.2 L779.4 29.2 L780.5 28.9 L781.5 28.8 L782.5 28.7 L783.6 28.7 L784.6 28.6 L785.6 28.5 L786.6 28.1 L787.7 27.3 L788.7 27.2 L789.7 27 L790.8 26.9 L791.8 26.8 L792.8 26.7 L793.8 26.7 L794.9 26.7 L795.9 26.5 L796.9 26.5 L797.9 26.4 L799 26.2 L800 26.2 L801 26.1 L802.1 26 L803.1 26 L804.1 26 L805.1 25.8 L806.2 25.7 L807.2 25.6 L808.2 25.4 L809.3 25.4 L810.3 25.3 L811.3 25.2 L812.3 25 L813.4 24.9 L814.4 24.8 L815.4 24.6 L816.5 24.6 L817.5 24.5 L818.5 24.5 L819.5 24.4 L820.6 24.2 L821.6 23.8 L822.6 22.8 L823.7 22.4 L824.7 22.1 L825.7 22 L826.7 21.9 L827.8 21.9 L828.8 21.7 L829.8 21.6 L830.9 21.5 L831.9 21.4 L832.9 21.4 L833.9 21.2 L835 20.5 L836 20" fill="none" stroke="#8b5cf6" stroke-width="3" stroke-linecap="round" stroke-linejoin="round"/>
    <circle cx="836" cy="20" r="5" fill="#8b5cf6" stroke="#fff" stroke-width="2"/>
    <text x="220" y="194" text-anchor="start" class="secondary" font-size="9">Jan 15, 2025</text><text x="528" y="194" text-anchor="middle" class="secondary" font-size="9">Nov 10, 2025</text><text x="836" y="194" text-anchor="end" class="secondary" font-size="9">Sep 6, 2026</text>
  </g><g transform="translate(30 414)">
    <rect width="856" height="201" rx="16" class="panel"/>
    <circle cx="20" cy="27" r="5" fill="#06b6d4"/>
    <text x="34" y="31" class="primary" font-size="14" font-weight="700">Forks</text>
    <text x="20" y="62" class="primary" font-size="20" font-weight="750">152</text>
    <text x="20" y="83" class="secondary" font-size="11">range 0–153</text>
    <line x1="220" x2="836" y1="20" y2="20" class="grid" stroke-width="1" stroke-dasharray="3 6"/><text x="210" y="24" text-anchor="end" class="secondary" font-size="9">153</text><line x1="220" x2="836" y1="95" y2="95" class="grid" stroke-width="1" stroke-dasharray="3 6"/><text x="210" y="99" text-anchor="end" class="secondary" font-size="9">77</text><line x1="220" x2="836" y1="170" y2="170" class="grid" stroke-width="1" stroke-dasharray="3 6"/><text x="210" y="174" text-anchor="end" class="secondary" font-size="9">0</text>
    <path d="M220 170 L273.5 170 L281.7 170 L288.9 170 L289.9 170 L294 170 L295.1 170 L298.2 170 L304.3 170 L328 170 L329 169 L335.2 169 L337.2 169 L338.3 169 L339.3 169 L340.3 169 L341.3 169 L342.4 169 L343.4 168 L344.4 168 L345.5 168 L347.5 168 L348.5 168 L349.6 167.1 L350.6 166.1 L351.6 166.1 L352.7 165.1 L353.7 165.1 L354.7 165.1 L355.7 165.1 L356.8 165.1 L357.8 165.1 L361.9 165.1 L362.9 165.1 L364 165.1 L366 165.1 L367.1 165.1 L369.1 165.1 L370.1 165.1 L371.2 164.1 L373.2 163.1 L375.3 163.1 L376.3 163.1 L379.4 159.2 L380.4 154.3 L381.5 151.4 L382.5 149.4 L383.5 148.4 L384.5 148.4 L385.6 147.5 L386.6 145.5 L387.6 144.5 L388.7 144.5 L389.7 144.5 L390.7 144.5 L391.7 144.5 L392.8 144.5 L393.8 144.5 L394.8 143.5 L395.9 143.5 L396.9 142.5 L397.9 140.6 L398.9 138.6 L400 136.7 L401 136.7 L402 136.7 L403.1 135.7 L404.1 135.7 L406.1 134.7 L407.2 133.7 L408.2 133.7 L409.2 133.7 L410.3 132.7 L411.3 131.8 L412.3 131.8 L413.3 131.8 L414.4 131.8 L415.4 131.8 L416.4 131.8 L417.4 131.8 L418.5 131.8 L419.5 130.8 L420.5 130.8 L421.6 130.8 L422.6 129.8 L423.6 129.8 L424.6 129.8 L425.7 129.8 L426.7 129.8 L427.7 129.8 L428.8 128.8 L429.8 128.8 L430.8 128.8 L431.8 128.8 L432.9 128.8 L433.9 128.8 L434.9 128.8 L436 128.8 L437 128.8 L438 128.8 L440.1 128.8 L441.1 128.8 L442.1 128.8 L443.2 128.8 L444.2 128.8 L445.2 127.8 L446.2 127.8 L447.3 126.9 L448.3 126.9 L449.3 125.9 L450.4 125.9 L451.4 125.9 L452.4 125.9 L453.4 124.9 L454.5 124.9 L455.5 123.9 L456.5 123.9 L459.6 122.9 L460.6 122.9 L461.7 122.9 L462.7 122.9 L464.8 122.9 L465.8 122 L466.8 122 L467.8 122 L468.9 122 L469.9 121 L470.9 121 L472 121 L473 120 L474 120 L475 119 L476.1 119 L477.1 119 L478.1 119 L479.2 118 L480.2 118 L481.2 118 L482.2 118 L483.3 118 L484.3 118 L485.3 118 L486.4 118 L487.4 118 L489.4 117.1 L490.5 117.1 L491.5 117.1 L492.5 117.1 L493.5 117.1 L494.6 117.1 L496.6 117.1 L498.7 116.1 L499.7 115.1 L500.7 114.1 L501.8 114.1 L502.8 114.1 L503.8 114.1 L504.9 114.1 L505.9 114.1 L506.9 112.2 L507.9 112.2 L509 111.2 L510 111.2 L511 110.2 L512.1 110.2 L513.1 109.2 L514.1 109.2 L515.1 109.2 L516.2 109.2 L517.2 108.2 L518.2 108.2 L519.3 108.2 L520.3 107.3 L521.3 107.3 L522.3 107.3 L523.4 106.3 L524.4 105.3 L525.4 104.3 L526.5 102.4 L527.5 100.4 L528.5 99.4 L529.5 99.4 L530.6 98.4 L531.6 98.4 L532.6 98.4 L533.7 97.5 L534.7 96.5 L535.7 94.5 L536.7 92.5 L537.8 91.6 L538.8 91.6 L539.8 91.6 L540.9 90.6 L541.9 88.6 L542.9 88.6 L543.9 87.6 L545 85.7 L546 85.7 L547 85.7 L548.1 85.7 L549.1 84.7 L550.1 83.7 L551.1 83.7 L552.2 83.7 L553.2 80.8 L554.2 80.8 L555.3 79.8 L556.3 78.8 L557.3 77.8 L558.3 77.8 L559.4 76.9 L560.4 76.9 L561.4 76.9 L562.5 76.9 L563.5 76.9 L564.5 75.9 L565.5 75.9 L566.6 75.9 L567.6 75.9 L568.6 73.9 L569.6 73.9 L570.7 72.9 L571.7 72.9 L572.7 72.9 L573.8 72.9 L574.8 72.9 L575.8 72.9 L576.8 72 L577.9 71 L578.9 71 L579.9 71 L581 71 L582 71 L583 69 L584 69 L585.1 69 L586.1 69 L587.1 69 L588.2 68 L589.2 67.1 L590.2 66.1 L591.2 66.1 L592.3 65.1 L593.3 65.1 L594.3 65.1 L595.4 65.1 L596.4 65.1 L597.4 65.1 L598.4 65.1 L599.5 65.1 L600.5 65.1 L601.5 65.1 L602.6 65.1 L603.6 65.1 L604.6 65.1 L605.6 65.1 L606.7 65.1 L607.7 65.1 L608.7 64.1 L609.8 64.1 L610.8 64.1 L611.8 64.1 L612.8 63.1 L613.9 63.1 L614.9 61.2 L615.9 61.2 L617 61.2 L618 61.2 L619 60.2 L620 60.2 L621.1 60.2 L622.1 60.2 L623.1 60.2 L624.2 59.2 L625.2 56.3 L626.2 56.3 L627.2 55.3 L628.3 55.3 L629.3 54.3 L630.3 54.3 L631.4 54.3 L632.4 54.3 L633.4 54.3 L634.4 54.3 L635.5 54.3 L636.5 54.3 L637.5 54.3 L638.6 53.3 L639.6 52.4 L640.6 52.4 L641.6 52.4 L642.7 52.4 L643.7 52.4 L644.7 51.4 L645.7 51.4 L646.8 51.4 L647.8 50.4 L648.8 50.4 L649.9 50.4 L650.9 50.4 L651.9 50.4 L652.9 50.4 L654 50.4 L655 50.4 L656 50.4 L657.1 50.4 L658.1 50.4 L659.1 50.4 L660.1 50.4 L661.2 50.4 L662.2 50.4 L663.2 50.4 L664.3 50.4 L665.3 50.4 L666.3 50.4 L667.3 50.4 L668.4 50.4 L669.4 50.4 L670.4 50.4 L671.5 50.4 L672.5 50.4 L673.5 50.4 L674.5 50.4 L675.6 50.4 L676.6 50.4 L677.6 50.4 L678.7 50.4 L679.7 50.4 L682.8 50.4 L683.8 50.4 L685.9 50.4 L686.9 49.4 L688.9 49.4 L690 48.4 L691 47.5 L692 47.5 L693.1 47.5 L694.1 47.5 L695.1 47.5 L696.1 47.5 L697.2 46.5 L698.2 45.5 L700.3 45.5 L701.3 43.5 L702.3 43.5 L703.3 42.5 L704.4 42.5 L705.4 40.6 L706.4 40.6 L707.5 40.6 L709.5 40.6 L710.5 40.6 L711.6 40.6 L712.6 40.6 L713.6 39.6 L715.7 39.6 L716.7 39.6 L717.7 38.6 L718.8 37.6 L719.8 36.7 L720.8 36.7 L721.8 36.7 L722.9 36.7 L723.9 36.7 L724.9 36.7 L726 36.7 L727 34.7 L728 34.7 L729 34.7 L730.1 34.7 L731.1 34.7 L732.1 34.7 L733.2 33.7 L734.2 33.7 L735.2 33.7 L736.2 33.7 L737.3 33.7 L738.3 33.7 L739.3 32.7 L740.4 32.7 L741.4 32.7 L742.4 32.7 L743.4 32.7 L744.5 32.7 L745.5 32.7 L746.5 32.7 L747.6 32.7 L748.6 30.8 L749.6 29.8 L750.6 29.8 L751.7 28.8 L753.7 28.8 L754.8 28.8 L755.8 28.8 L756.8 28.8 L757.8 27.8 L758.9 27.8 L759.9 27.8 L760.9 27.8 L763 27.8 L765 27.8 L766.1 27.8 L767.1 27.8 L769.2 27.8 L770.2 27.8 L771.2 27.8 L772.2 27.8 L773.3 26.9 L775.3 26.9 L776.4 26.9 L779.4 26.9 L780.5 26.9 L781.5 26.9 L782.5 26.9 L783.6 26.9 L784.6 26.9 L785.6 26.9 L786.6 26.9 L787.7 23.9 L788.7 24.9 L789.7 23.9 L790.8 23.9 L791.8 22.9 L792.8 22.9 L793.8 22.9 L794.9 23.9 L795.9 23.9 L796.9 23.9 L797.9 23.9 L799 22.9 L800 22.9 L801 22 L802.1 22 L803.1 22 L804.1 22 L805.1 22 L806.2 22 L807.2 21 L808.2 21 L809.3 21 L810.3 21 L811.3 20 L812.3 21 L813.4 21 L814.4 21 L815.4 20 L816.5 20 L817.5 20 L818.5 20 L819.5 20 L820.6 20 L821.6 20 L822.6 20 L823.7 20 L824.7 20 L825.7 20 L826.7 20 L827.8 21 L828.8 21 L829.8 21 L830.9 21 L831.9 21 L832.9 21 L833.9 21 L835 21 L836 21 L836 170 L220 170 Z" fill="url(#fill-forks)"/>
    <path d="M220 170 L273.5 170 L281.7 170 L288.9 170 L289.9 170 L294 170 L295.1 170 L298.2 170 L304.3 170 L328 170 L329 169 L335.2 169 L337.2 169 L338.3 169 L339.3 169 L340.3 169 L341.3 169 L342.4 169 L343.4 168 L344.4 168 L345.5 168 L347.5 168 L348.5 168 L349.6 167.1 L350.6 166.1 L351.6 166.1 L352.7 165.1 L353.7 165.1 L354.7 165.1 L355.7 165.1 L356.8 165.1 L357.8 165.1 L361.9 165.1 L362.9 165.1 L364 165.1 L366 165.1 L367.1 165.1 L369.1 165.1 L370.1 165.1 L371.2 164.1 L373.2 163.1 L375.3 163.1 L376.3 163.1 L379.4 159.2 L380.4 154.3 L381.5 151.4 L382.5 149.4 L383.5 148.4 L384.5 148.4 L385.6 147.5 L386.6 145.5 L387.6 144.5 L388.7 144.5 L389.7 144.5 L390.7 144.5 L391.7 144.5 L392.8 144.5 L393.8 144.5 L394.8 143.5 L395.9 143.5 L396.9 142.5 L397.9 140.6 L398.9 138.6 L400 136.7 L401 136.7 L402 136.7 L403.1 135.7 L404.1 135.7 L406.1 134.7 L407.2 133.7 L408.2 133.7 L409.2 133.7 L410.3 132.7 L411.3 131.8 L412.3 131.8 L413.3 131.8 L414.4 131.8 L415.4 131.8 L416.4 131.8 L417.4 131.8 L418.5 131.8 L419.5 130.8 L420.5 130.8 L421.6 130.8 L422.6 129.8 L423.6 129.8 L424.6 129.8 L425.7 129.8 L426.7 129.8 L427.7 129.8 L428.8 128.8 L429.8 128.8 L430.8 128.8 L431.8 128.8 L432.9 128.8 L433.9 128.8 L434.9 128.8 L436 128.8 L437 128.8 L438 128.8 L440.1 128.8 L441.1 128.8 L442.1 128.8 L443.2 128.8 L444.2 128.8 L445.2 127.8 L446.2 127.8 L447.3 126.9 L448.3 126.9 L449.3 125.9 L450.4 125.9 L451.4 125.9 L452.4 125.9 L453.4 124.9 L454.5 124.9 L455.5 123.9 L456.5 123.9 L459.6 122.9 L460.6 122.9 L461.7 122.9 L462.7 122.9 L464.8 122.9 L465.8 122 L466.8 122 L467.8 122 L468.9 122 L469.9 121 L470.9 121 L472 121 L473 120 L474 120 L475 119 L476.1 119 L477.1 119 L478.1 119 L479.2 118 L480.2 118 L481.2 118 L482.2 118 L483.3 118 L484.3 118 L485.3 118 L486.4 118 L487.4 118 L489.4 117.1 L490.5 117.1 L491.5 117.1 L492.5 117.1 L493.5 117.1 L494.6 117.1 L496.6 117.1 L498.7 116.1 L499.7 115.1 L500.7 114.1 L501.8 114.1 L502.8 114.1 L503.8 114.1 L504.9 114.1 L505.9 114.1 L506.9 112.2 L507.9 112.2 L509 111.2 L510 111.2 L511 110.2 L512.1 110.2 L513.1 109.2 L514.1 109.2 L515.1 109.2 L516.2 109.2 L517.2 108.2 L518.2 108.2 L519.3 108.2 L520.3 107.3 L521.3 107.3 L522.3 107.3 L523.4 106.3 L524.4 105.3 L525.4 104.3 L526.5 102.4 L527.5 100.4 L528.5 99.4 L529.5 99.4 L530.6 98.4 L531.6 98.4 L532.6 98.4 L533.7 97.5 L534.7 96.5 L535.7 94.5 L536.7 92.5 L537.8 91.6 L538.8 91.6 L539.8 91.6 L540.9 90.6 L541.9 88.6 L542.9 88.6 L543.9 87.6 L545 85.7 L546 85.7 L547 85.7 L548.1 85.7 L549.1 84.7 L550.1 83.7 L551.1 83.7 L552.2 83.7 L553.2 80.8 L554.2 80.8 L555.3 79.8 L556.3 78.8 L557.3 77.8 L558.3 77.8 L559.4 76.9 L560.4 76.9 L561.4 76.9 L562.5 76.9 L563.5 76.9 L564.5 75.9 L565.5 75.9 L566.6 75.9 L567.6 75.9 L568.6 73.9 L569.6 73.9 L570.7 72.9 L571.7 72.9 L572.7 72.9 L573.8 72.9 L574.8 72.9 L575.8 72.9 L576.8 72 L577.9 71 L578.9 71 L579.9 71 L581 71 L582 71 L583 69 L584 69 L585.1 69 L586.1 69 L587.1 69 L588.2 68 L589.2 67.1 L590.2 66.1 L591.2 66.1 L592.3 65.1 L593.3 65.1 L594.3 65.1 L595.4 65.1 L596.4 65.1 L597.4 65.1 L598.4 65.1 L599.5 65.1 L600.5 65.1 L601.5 65.1 L602.6 65.1 L603.6 65.1 L604.6 65.1 L605.6 65.1 L606.7 65.1 L607.7 65.1 L608.7 64.1 L609.8 64.1 L610.8 64.1 L611.8 64.1 L612.8 63.1 L613.9 63.1 L614.9 61.2 L615.9 61.2 L617 61.2 L618 61.2 L619 60.2 L620 60.2 L621.1 60.2 L622.1 60.2 L623.1 60.2 L624.2 59.2 L625.2 56.3 L626.2 56.3 L627.2 55.3 L628.3 55.3 L629.3 54.3 L630.3 54.3 L631.4 54.3 L632.4 54.3 L633.4 54.3 L634.4 54.3 L635.5 54.3 L636.5 54.3 L637.5 54.3 L638.6 53.3 L639.6 52.4 L640.6 52.4 L641.6 52.4 L642.7 52.4 L643.7 52.4 L644.7 51.4 L645.7 51.4 L646.8 51.4 L647.8 50.4 L648.8 50.4 L649.9 50.4 L650.9 50.4 L651.9 50.4 L652.9 50.4 L654 50.4 L655 50.4 L656 50.4 L657.1 50.4 L658.1 50.4 L659.1 50.4 L660.1 50.4 L661.2 50.4 L662.2 50.4 L663.2 50.4 L664.3 50.4 L665.3 50.4 L666.3 50.4 L667.3 50.4 L668.4 50.4 L669.4 50.4 L670.4 50.4 L671.5 50.4 L672.5 50.4 L673.5 50.4 L674.5 50.4 L675.6 50.4 L676.6 50.4 L677.6 50.4 L678.7 50.4 L679.7 50.4 L682.8 50.4 L683.8 50.4 L685.9 50.4 L686.9 49.4 L688.9 49.4 L690 48.4 L691 47.5 L692 47.5 L693.1 47.5 L694.1 47.5 L695.1 47.5 L696.1 47.5 L697.2 46.5 L698.2 45.5 L700.3 45.5 L701.3 43.5 L702.3 43.5 L703.3 42.5 L704.4 42.5 L705.4 40.6 L706.4 40.6 L707.5 40.6 L709.5 40.6 L710.5 40.6 L711.6 40.6 L712.6 40.6 L713.6 39.6 L715.7 39.6 L716.7 39.6 L717.7 38.6 L718.8 37.6 L719.8 36.7 L720.8 36.7 L721.8 36.7 L722.9 36.7 L723.9 36.7 L724.9 36.7 L726 36.7 L727 34.7 L728 34.7 L729 34.7 L730.1 34.7 L731.1 34.7 L732.1 34.7 L733.2 33.7 L734.2 33.7 L735.2 33.7 L736.2 33.7 L737.3 33.7 L738.3 33.7 L739.3 32.7 L740.4 32.7 L741.4 32.7 L742.4 32.7 L743.4 32.7 L744.5 32.7 L745.5 32.7 L746.5 32.7 L747.6 32.7 L748.6 30.8 L749.6 29.8 L750.6 29.8 L751.7 28.8 L753.7 28.8 L754.8 28.8 L755.8 28.8 L756.8 28.8 L757.8 27.8 L758.9 27.8 L759.9 27.8 L760.9 27.8 L763 27.8 L765 27.8 L766.1 27.8 L767.1 27.8 L769.2 27.8 L770.2 27.8 L771.2 27.8 L772.2 27.8 L773.3 26.9 L775.3 26.9 L776.4 26.9 L779.4 26.9 L780.5 26.9 L781.5 26.9 L782.5 26.9 L783.6 26.9 L784.6 26.9 L785.6 26.9 L786.6 26.9 L787.7 23.9 L788.7 24.9 L789.7 23.9 L790.8 23.9 L791.8 22.9 L792.8 22.9 L793.8 22.9 L794.9 23.9 L795.9 23.9 L796.9 23.9 L797.9 23.9 L799 22.9 L800 22.9 L801 22 L802.1 22 L803.1 22 L804.1 22 L805.1 22 L806.2 22 L807.2 21 L808.2 21 L809.3 21 L810.3 21 L811.3 20 L812.3 21 L813.4 21 L814.4 21 L815.4 20 L816.5 20 L817.5 20 L818.5 20 L819.5 20 L820.6 20 L821.6 20 L822.6 20 L823.7 20 L824.7 20 L825.7 20 L826.7 20 L827.8 21 L828.8 21 L829.8 21 L830.9 21 L831.9 21 L832.9 21 L833.9 21 L835 21 L836 21" fill="none" stroke="#06b6d4" stroke-width="3" stroke-linecap="round" stroke-linejoin="round"/>
    <circle cx="836" cy="21" r="5" fill="#06b6d4" stroke="#fff" stroke-width="2"/>
    <text x="220" y="194" text-anchor="start" class="secondary" font-size="9">Jan 15, 2025</text><text x="528" y="194" text-anchor="middle" class="secondary" font-size="9">Nov 10, 2025</text><text x="836" y="194" text-anchor="end" class="secondary" font-size="9">Sep 6, 2026</text>
  </g><g transform="translate(30 631)">
    <rect width="856" height="201" rx="16" class="panel"/>
    <circle cx="20" cy="27" r="5" fill="#f59e0b"/>
    <text x="34" y="31" class="primary" font-size="14" font-weight="700">Git clones</text>
    <text x="20" y="62" class="primary" font-size="20" font-weight="750">26.4K</text>
    <text x="20" y="83" class="secondary" font-size="11">range 448–26.4K</text>
    <line x1="220" x2="836" y1="20" y2="20" class="grid" stroke-width="1" stroke-dasharray="3 6"/><text x="210" y="24" text-anchor="end" class="secondary" font-size="9">26.4K</text><line x1="220" x2="836" y1="95" y2="95" class="grid" stroke-width="1" stroke-dasharray="3 6"/><text x="210" y="99" text-anchor="end" class="secondary" font-size="9">13.4K</text><line x1="220" x2="836" y1="170" y2="170" class="grid" stroke-width="1" stroke-dasharray="3 6"/><text x="210" y="174" text-anchor="end" class="secondary" font-size="9">448</text>
    <path d="M220 170 L237.6 167.3 L255.2 164.6 L272.8 162 L290.4 159.8 L308 157.7 L325.6 155.5 L343.2 153.5 L360.8 151.2 L378.4 149 L396 146.9 L413.6 144.6 L431.2 142.4 L448.8 82.1 L466.4 80.1 L484 78 L501.6 75.6 L519.2 73.5 L536.8 71.6 L554.4 69.3 L572 67.1 L589.6 64.6 L607.2 62.1 L624.8 59.9 L642.4 57.6 L660 55.2 L677.6 53.3 L695.2 51.2 L712.8 49.5 L730.4 47.5 L748 44.3 L765.6 38.2 L783.2 29.6 L800.8 24.2 L818.4 20 L836 20 L836 170 L220 170 Z" fill="url(#fill-clones)"/>
    <path d="M220 170 L237.6 167.3 L255.2 164.6 L272.8 162 L290.4 159.8 L308 157.7 L325.6 155.5 L343.2 153.5 L360.8 151.2 L378.4 149 L396 146.9 L413.6 144.6 L431.2 142.4 L448.8 82.1 L466.4 80.1 L484 78 L501.6 75.6 L519.2 73.5 L536.8 71.6 L554.4 69.3 L572 67.1 L589.6 64.6 L607.2 62.1 L624.8 59.9 L642.4 57.6 L660 55.2 L677.6 53.3 L695.2 51.2 L712.8 49.5 L730.4 47.5 L748 44.3 L765.6 38.2 L783.2 29.6 L800.8 24.2 L818.4 20 L836 20" fill="none" stroke="#f59e0b" stroke-width="3" stroke-linecap="round" stroke-linejoin="round"/>
    <circle cx="836" cy="20" r="5" fill="#f59e0b" stroke="#fff" stroke-width="2"/>
    <text x="220" y="194" text-anchor="start" class="secondary" font-size="9">Aug 2, 2026</text><text x="528" y="194" text-anchor="middle" class="secondary" font-size="9">Aug 19, 2026</text><text x="836" y="194" text-anchor="end" class="secondary" font-size="9">Sep 6, 2026</text>
  </g>
    <text x="30" y="862" class="secondary" font-size="11">Updated Sep 6, 2026</text>
    <a href="https://github.com/MacRimi/repo-growth" target="_blank" aria-label="Open the Repo Growth project">
      <text x="886" y="862" fill="#8b5cf6" text-anchor="end" font-size="13" font-weight="700">Generated by Repo Growth ↗</text>
    </a>
  </g>
</svg>
